/vscmnt/brussel_pixiu_data/_data_brussel/112/vsc11236/PredSimResults/SUBJ04opt3D/worker_03.mot
version=1
nRows=7
nColumns=50
inDegrees=yes
endheader
                time	         pelvis_tilt	         pelvis_list	     pelvis_rotation	           pelvis_tx	           pelvis_ty	           pelvis_tz	       hip_flexion_r	     hip_adduction_r	      hip_rotation_r	        knee_angle_r	       ankle_angle_r	         mtp_angle_r	       hip_flexion_l	     hip_adduction_l	      hip_rotation_l	        knee_angle_l	       ankle_angle_l	         mtp_angle_l	    lumbar_extension	      lumbar_bending	     lumbar_rotation	 ercspn_r/activation	 intobl_r/activation	 extobl_r/activation	    abd_r/activation	    add_r/activation	hamstrings_r/activation	bifemsh_r/activation	glut_max_r/activation	iliopsoas_r/activation	rect_fem_r/activation	  vasti_r/activation	gastroc_r/activation	 soleus_r/activation	tib_ant_r/activation	 ercspn_l/activation	 intobl_l/activation	 extobl_l/activation	    abd_l/activation	    add_l/activation	hamstrings_l/activation	bifemsh_l/activation	glut_max_l/activation	iliopsoas_l/activation	rect_fem_l/activation	  vasti_l/activation	gastroc_l/activation	 soleus_l/activation	tib_ant_l/activation	
          0.82065420	         -1.32175949	         -3.73645437	        -10.97270842	          0.65652336	          0.87255598	          0.00425414	        -15.89582654	          3.14087310	         -7.25209800	         -5.24998694	         14.80508907	         18.20837015	         31.33326555	         -5.60171826	         -8.36226679	        -12.58741887	          2.19667705	          0.22696626	        -13.22669845	         12.56272630	         -3.61095526	          0.00999999	          0.00999999	          0.00999999	          0.04684963	          0.00999999	          0.01165442	          0.19097890	          0.00999999	          0.03737786	          0.00999999	          0.00999999	          0.20953664	          0.21121534	          0.01232353	          0.01273537	          0.11178646	          0.08102703	          0.00999999	          0.17905058	          0.05632701	          0.09668053	          0.01171689	          0.17381734	          0.05433942	          0.02384910	          0.01689051	          0.01532432	          0.28760278	
          0.83706729	         -1.51975001	         -3.22014456	        -10.77994413	          0.67327066	          0.87017445	          0.00485560	        -16.35408313	          2.52364019	         -7.97339679	         -5.97898986	         14.65091728	         19.74137116	         31.08255743	         -5.07899345	         -9.01704101	        -13.63816230	          1.93028816	          0.22088175	        -12.56377673	         11.09025100	         -3.38660105	          0.00999999	          0.00999999	          0.00999999	          0.03678660	          0.00999999	          0.00999999	          0.14995774	          0.00999999	          0.02934931	          0.00999999	          0.00999999	          0.18267547	          0.21854570	          0.00999999	          0.00999999	          0.12775988	          0.06362290	          0.00999999	          0.15240066	          0.06521382	          0.07591412	          0.04449095	          0.13648239	          0.04266763	          0.01872645	          0.01326253	          0.01203274	          0.31279720	
          0.85348037	         -1.69404783	         -2.62778179	        -10.51698162	          0.69043094	          0.86822354	          0.00531572	        -16.70782331	          1.81641380	         -8.78471675	         -6.96403171	         14.33786233	         21.38107526	         30.83493139	         -4.51285585	         -9.76329909	        -14.64202010	          1.42929371	          0.20714967	        -11.87425185	          9.50297097	         -3.12918424	          0.00999999	          0.00999999	          0.00999999	          0.02888505	          0.00999999	          0.01387882	          0.11774770	          0.00999999	          0.02304525	          0.00999999	          0.00999999	          0.14343784	          0.21784774	          0.00999999	          0.00999999	          0.10031781	          0.04995707	          0.01586525	          0.14545606	          0.06599799	          0.05960821	          0.03493455	          0.10716677	          0.03350287	          0.07110579	          0.01041382	          0.00999999	          0.33899154	
          0.86989346	         -1.84522581	         -1.96791060	        -10.18567761	          0.70780556	          0.86695442	          0.00558543	        -16.87565184	          1.01201627	         -9.68621046	         -8.32656725	         13.81314424	         23.13463863	         30.61001504	         -3.91137619	        -10.70485659	        -15.72512365	          1.04585159	          0.18700257	        -11.19051642	          7.81998685	         -2.83925720	          0.00999999	          0.00999999	          0.00999999	          0.02268071	          0.00999999	          0.01426779	          0.09245618	          0.01540336	          0.01809527	          0.00999999	          0.02262753	          0.11262823	          0.20312846	          0.00999999	          0.01597360	          0.07877013	          0.03922658	          0.02346409	          0.11834659	          0.06582081	          0.04680471	          0.02743081	          0.08414797	          0.02630665	          0.12172814	          0.00999999	          0.00999999	          0.35395769	
          0.88630654	         -1.97477084	         -1.26543929	         -9.79167356	          0.72529386	          0.86654687	          0.00564490	        -16.82781738	          0.12279173	        -10.67390653	        -10.09947055	         12.98822458	         25.01034625	         30.32074512	         -3.27094525	        -11.77042402	        -16.76106174	          0.86151980	          0.16886161	        -10.53287097	          6.07746798	         -2.51798391	          0.01683687	          0.00999999	          0.00999999	          0.01780903	          0.00999999	          0.01960683	          0.07259713	          0.01919681	          0.01420851	          0.00999999	          0.04088754	          0.08843635	          0.16663491	          0.00999999	          0.02200176	          0.06185076	          0.03080094	          0.04027287	          0.09292644	          0.06379741	          0.03675133	          0.02153883	          0.06607348	          0.02065613	          0.15902519	          0.00999999	          0.00999999	          0.35240258	
          0.90271962	         -2.08413495	         -0.54864011	         -9.34682436	          0.74279999	          0.86708990	          0.00548283	        -16.55920424	         -0.83674141	        -11.73118385	        -12.27298919	         11.80557604	         26.95945324	         29.89998624	         -2.56666179	        -12.77604672	        -17.62298510	          0.85903234	          0.15633926	         -9.91761670	          4.31503057	         -2.15992698	          0.03816975	          0.00999999	          0.00999999	          0.01398375	          0.00999999	          0.04908154	          0.05700369	          0.02870201	          0.01115660	          0.00999999	          0.05118047	          0.06944074	          0.13084270	          0.00999999	          0.02593307	          0.04856558	          0.02418508	          0.05355963	          0.09606948	          0.06434334	          0.02885736	          0.02428423	          0.05188128	          0.01621932	          0.17191067	          0.00999999	          0.00999999	          0.34244645	
          0.91913271	         -2.17344252	          0.14372606	         -8.86161369	          0.76028151	          0.86851654	          0.00510031	        -16.08724934	         -1.83779102	        -12.84978799	        -14.80898569	         10.24089834	         28.89888548	         29.30836067	         -1.79971383	        -13.58946539	        -18.23886711	          0.99320376	          0.15816104	         -9.35209901	          2.58373574	         -1.75971860	          0.03042702	          0.00999999	          0.00999999	          0.01098012	          0.08492085	          0.06714730	          0.04475963	          0.02630665	          0.00999999	          0.00999999	          0.04946619	          0.05452527	          0.10273846	          0.00999999	          0.03099109	          0.03813398	          0.01899027	          0.06385767	          0.10651577	          0.07094486	          0.02265897	          0.02001266	          0.04073749	          0.01273550	          0.17725291	          0.00999999	          0.00999999	          0.32174749	
